<?xml version="1.0" encoding="utf-8"?>
<!-- Generator: Adobe Illustrator 18.0.0, SVG Export Plug-In . SVG Version: 6.00 Build 0)  -->
<!DOCTYPE svg PUBLIC "-//W3C//DTD SVG 1.1//EN" "http://www.w3.org/Graphics/SVG/1.1/DTD/svg11.dtd">
<svg version="1.1" id="圖層_1" xmlns="http://www.w3.org/2000/svg" xmlns:xlink="http://www.w3.org/1999/xlink" x="0px" y="0px"
	 viewBox="0 0 241.161 161.347" style="enable-background:new 0 0 241.161 161.347;" xml:space="preserve">
<path d="M90.156,98.46h-1.129v2.867h-0.723V98.46h-1.121v-0.61h2.973V98.46z"/>
<path d="M93.219,99.832v1.495h-0.696v-1.495c0-0.414-0.206-0.617-0.593-0.617c-0.246,0-0.445,0.075-0.602,0.203v1.909h-0.697v-3.72
	h0.697v1.18c0.201-0.123,0.451-0.189,0.728-0.189C92.852,98.597,93.219,98.963,93.219,99.832z"/>
<path d="M94.381,100.183c0.074,0.351,0.361,0.597,0.777,0.597c0.285,0,0.551-0.128,0.7-0.331l0.446,0.365
	c-0.248,0.336-0.695,0.553-1.227,0.553c-0.823,0-1.394-0.616-1.394-1.382c0-0.771,0.571-1.388,1.394-1.388
	c0.837,0,1.323,0.598,1.323,1.433c0,0.055-0.005,0.108-0.005,0.153H94.381z M94.385,99.744h1.35
	c-0.025-0.307-0.189-0.598-0.656-0.598C94.711,99.146,94.451,99.413,94.385,99.744z"/>
<path d="M102.19,97.849v3.478h-0.722v-1.923l-1.093,1.51l-1.099-1.51v1.923h-0.716v-3.478h0.351l1.464,1.993l1.464-1.993H102.19z"/>
<path d="M105.709,99.985c0,0.766-0.666,1.382-1.489,1.382c-0.821,0-1.489-0.616-1.489-1.382c0-0.771,0.668-1.388,1.489-1.388
	C105.043,98.597,105.709,99.214,105.709,99.985z M105.022,99.985c0-0.425-0.356-0.771-0.803-0.771c-0.44,0-0.802,0.346-0.802,0.771
	c0,0.419,0.361,0.766,0.802,0.766C104.666,100.751,105.022,100.404,105.022,99.985z"/>
<path d="M106.306,100.602c0.335,0.144,0.589,0.217,0.933,0.217c0.32,0,0.445-0.118,0.445-0.256c0-0.153-0.156-0.222-0.578-0.312
	c-0.586-0.129-1.011-0.316-1.011-0.834c0-0.483,0.405-0.82,1.038-0.82c0.426,0,0.768,0.1,1.063,0.219l-0.232,0.504
	c-0.265-0.099-0.576-0.174-0.846-0.174c-0.266,0-0.401,0.094-0.401,0.237c0,0.147,0.166,0.217,0.601,0.306
	c0.633,0.129,0.999,0.345,0.999,0.834c0,0.508-0.397,0.844-1.093,0.844c-0.471,0-0.778-0.064-1.18-0.257L106.306,100.602z"/>
<path d="M111.553,98.647v3.543h-0.697v-1.025c-0.23,0.129-0.5,0.202-0.796,0.202c-0.758,0-1.374-0.558-1.374-1.382
	c0-0.839,0.616-1.388,1.374-1.388c0.285,0,0.571,0.08,0.796,0.208v-0.158H111.553z M110.185,100.751c0.265,0,0.499-0.085,0.67-0.228
	v-1.076c-0.175-0.143-0.405-0.232-0.67-0.232c-0.467,0-0.814,0.332-0.814,0.771C109.371,100.438,109.719,100.751,110.185,100.751z"
	/>
<path style="fill:#FFFFFF;" d="M31.862,68.504c0,0,5.955-27.866,16.66-32.356c10.705-4.49,18.895-12.717,20.978-12.762
	c2.083-0.045,38.072,0.952,42.406,3.025c4.332,2.074,33.625,13.685,33.625,13.685l13.762,27.926l4.892,23.35
	c0,0,19.252,2.574,21.905,2.574c2.654,0,23.888,5.06,23.888,5.06s1.995,14.069,0.005,19.587c-1.991,5.517-47.108,24.51-47.108,24.51
	l-40.653-5.415l-33.819-5.868L48.185,111.3l-8.845-14.734l-7.478-18.18V68.504z"/>
<g>
	<path style="fill-rule:evenodd;clip-rule:evenodd;fill:#010101;" d="M147.666,109.398c-1.359-1.802-2.721-3.605-4.405-5.841
		c-2.106,3.608-4.034,6.918-7.247,9.2c-3.703,2.632-6.869,1.92-9.734-1.291c-0.994-0.823-0.243-2.078-0.772-3.018
		c1.652-3.395,5.684-3.924,8.092-6.734c3.537-4.126,7.061-8.018,8.598-13.329c0.273-0.94,0.404-2.525,1.798-2.434
		c1.162,0.077,1.722,1.247,1.737,2.47c2.683,2.238,0.975,5.318,1.571,7.955c0.003,0.928,0.003,1.854,0.005,2.782
		c0.921,1.63,2.134,3.081,2.99,4.749l0.055-0.048c1.073,0.447,2.07,1.015,2.924,1.802c8.504,3.851,17.379,6.015,26.791,5.747
		c2.232,1.185,4.479-0.033,6.717,0.042c1.994-1.111,4.238-0.818,6.392-1.162c-1.803,11.483-8.608,15.193-22.332,12.261
		c-5.629-1.204-10.801-3.467-15.647-6.489C152.134,114.447,149.236,112.65,147.666,109.398z"/>
</g>
<g>
	<path style="fill-rule:evenodd;clip-rule:evenodd;" d="M110.921,82.888c-1.901-0.471-2.864,1.055-4.25,1.8
		c-4.185,2.249-8.633,0.306-10.513-4.698c1.334,0.81,2.143,1.939,3.593,1.927c0.771-0.007,1.591,0.695,1.813-0.651
		c0.158-0.957,0.613-1.962-1.185-1.84c-1.124,0.077-1.315-0.981-1.528-1.886c-0.631-2.685-1.31-5.359-1.973-8.053
		c1.889-0.895,2.896,0.389,3.844,1.75c1.184-1.55,1.824-3.084,1.065-4.971c-0.244-0.612-0.625-1.922,0.953-0.88
		c0.467,0.462,0.937,0.917,1.601,1.094c4.204-1.971,6.359-1.139,7.927,3.301c0.417,1.179,0.931,0.951,1.786,0.797
		c5.859-1.055,11.041-3.759,16.063-6.676c1.964-1.141,4.372-0.938,5.87-2.703c1.469,2.979-0.26,4.625-2.156,6.18
		c-2.887,2.369-6.328,3.752-9.732,5.193c-0.959,1.741,0.406,3.522-0.094,5.27c-1.562,4.484-1.537,4.405,3.109,5.936
		c1.688,0.555,5.252,1.727,5.719,1.146c1.778-0.25,2.518,2.442,5.09,1.065c-1.574,2.164-1.048,4.92-4.049,5.227
		c-2.186,0.222-4.334,0.305-6.475-0.383c-2.628-0.846-4.996-2.145-7.092-3.885c-0.938-0.778-1.512-1.102-2.679-0.163
		c-1.844,1.483-3.78,1.62-5.105-0.851c-0.41-0.314-0.886-0.574-0.986-1.148c-0.046-1.447,0.226-2.527,1.996-2.968
		c1.362-0.337,1.948-1.489,1.468-2.98c-0.441-1.366-0.534-2.818-0.971-4.189c-0.164-0.511-0.338-1.143-0.939-1.205
		c-0.848-0.087-0.739,0.882-1.176,1.276c-0.683,0.825-1.19,1.73-1.307,2.812c0.053,1.122,1.191,1.819,1.227,2.914
		C111.865,81.345,112.238,82.446,110.921,82.888z"/>
	<path style="fill-rule:evenodd;clip-rule:evenodd;fill:#050505;" d="M122.054,61.573c0.791,2.35-1.425,2.984-2.39,4.304
		c-0.092,0.126-0.293,0.306-0.391,0.279c-1.303-0.349-3.785-4.467-3.359-5.8c0.418-1.306,1.805-1.614,2.932-1.862
		C121.417,57.929,122.205,59.389,122.054,61.573z"/>
	<path style="fill-rule:evenodd;clip-rule:evenodd;fill:#FFFFFF;" d="M118.596,73.597c0.887-0.074,1.773-0.146,2.781-0.232
		c0.218,1.436-0.725,2.371-1.242,3.409c-0.277,0.558-0.991,1.372-1.383,1.31c-0.729-0.113-0.826-1.035-0.902-1.754
		C116.857,75.089,116.022,73.892,118.596,73.597z"/>
	<path style="fill-rule:evenodd;clip-rule:evenodd;fill:#FFFFFF;" d="M107.994,78.386c-0.799,1.367-0.051,3.002-1.572,3.922
		c-0.578,0.35-1.281,0.602-1.801,0.333c-0.766-0.395-0.093-1.085-0.017-1.646C104.855,79.227,105.871,78.377,107.994,78.386z"/>
	<path style="fill-rule:evenodd;clip-rule:evenodd;fill:#FFFFFF;" d="M106.52,74.615c-1.159-1.28-0.527-2.798-0.43-4.181
		c0.05-0.726,0.916-1.521,1.791-1.039c1.07,0.587,0.861,1.592,0.251,2.498c-0.497,0.43-0.497,1.071-0.71,1.624
		C107.168,73.918,106.986,74.38,106.52,74.615z"/>
	<path style="fill-rule:evenodd;clip-rule:evenodd;fill:#FFFFFF;" d="M101.848,77.195c-0.282-1.406-0.537-2.582-0.746-3.766
		c-0.108-0.607,0.13-1.078,0.828-1.036c0.536,0.033,0.735,0.458,0.657,0.953C102.396,74.548,102.543,75.814,101.848,77.195z"/>
</g>
<g>
	<path style="fill-rule:evenodd;clip-rule:evenodd;fill:#010101;" d="M91.824,55.091c-1.243-2.118-3.211-1.651-5.058-1.271
		c-7.038,1.453-14.067,2.964-21.093,4.479c-1.324,0.284-3.096,1.222-3.787-0.147c-0.758-1.498,1.358-2.02,2.279-2.885
		c0.807-0.759,1.823-1.303,2.748-1.941c1.066-0.596,1.875-1.46,2.576-2.433c0.64-1.607,2.06-2.75,2.652-4.383
		c0.247-2.138-0.281-4.157-1.149-6.133c5.146-0.662,5.146-0.662,7.241,6.376c1.493-1.437,2.669-2.869,4.142-3.883
		c1.104-0.762,1.646-3.479,3.81-1.609c1.81,1.563,2.89,3.389,0.567,5.457c2.088,2.345,4.704-0.297,6.934,0.712
		c6.463,2.39,8.246,4.28,7.918,8.396c-0.379,4.791-5.455,10.864-9.963,12.043c-1.121,0.293-1.602,0.28-2.234-0.948
		c-1.489-2.894-2.023-5.534,0.469-8.114C90.419,57.515,91.502,56.496,91.824,55.091z"/>
	<path style="fill-rule:evenodd;clip-rule:evenodd;fill:#010101;" d="M78.057,68.942c1.385-0.567,2.289-0.591,2.143,1.364
		c-0.255,3.484-3.404,4.183-6.011,5.797c2.343,1.6,4.179,0.263,5.981-0.176c1.077-0.264,1.831-0.529,2.434,0.713
		c0.635,1.308-0.163,1.863-1.069,2.365c-1.529,0.848-3.101,1.619-4.552,2.832c6.293,0.932,11.693-2.879,17.494-3.351
		c1.75,5.805-2.914,6.402-6.6,7.782c-1.18,0.441-2.4,0.916-3.636,1.036c-4.274,0.418-7.39,1.727-8.698,6.472
		c-0.94,3.406-3.908,3.545-6.535,1.143c-0.858-0.787,0.016-1.024,0.145-1.436c0.439-1.404,1.014-2.768,1.639-4.415
		c-4.312-1.662-9.806-1.55-12.286-7.16c4.001,2.155,8.026,1.72,12.001,1.658c0.708-0.012,1.604,0.076,1.637-1.045
		c0.032-1.095-0.779-1.136-1.542-1.13c-1.714,0.018-3.212-0.362-4.427-2.012c0.549-0.125,0.848-0.211,1.154-0.26
		c1.746-0.272,4.802,0.494,4.636-1.766c-0.183-2.482-2.788-0.074-4.276-0.516c-0.947-0.279-2.025-0.171-2.945-0.503
		c-1.086-0.392-2.062-1.147-1.875-2.481c0.184-1.328,1.454-1.244,2.395-1.399c3.848-0.643,7.903-0.312,11.43-2.399
		c0.515-0.303,0.917-0.786,1.372-1.187L78.057,68.942z"/>
	<path style="fill-rule:evenodd;clip-rule:evenodd;fill:#030303;" d="M78.064,68.87c-1.039-2.021-1.98,0.038-2.906,0.158
		c-2.285,0.3-5.064,1.088-6.404-0.821c-1.488-2.124-0.698-5.164-0.131-7.619c0.471-2.045,9.656-3.205,11.076-1.576
		c1.125,1.291,1.209,2.816,0.667,4.549c-0.589,1.883-2.276,3.273-2.304,5.369C78.057,68.942,78.064,68.87,78.064,68.87z"/>
	<path style="fill-rule:evenodd;clip-rule:evenodd;fill:#090909;" d="M56.601,53.125c1.806,1.462,4.385,1.064,4.269,3.705
		c-0.131,3.005-0.648,5.953-2.557,8.405c-0.542,0.693-1.613,0.577-2.465,0.102c-1.068-0.596-1.157-1.327-0.735-2.478
		C56.178,59.958,56.804,56.949,56.601,53.125z"/>
	<path style="fill-rule:evenodd;clip-rule:evenodd;fill:#070707;" d="M72.143,46.51c0.188,2.009-0.678,3.538-2.232,4.755
		c-0.942,0.605-1.562,1.847-3.002,1.455c-1.183-1.272-3.428-1.542-3.792-3.51c-0.22-1.191,0.095-2.476,0.169-3.718
		c2.002,1.181,4.301-1.312,6.268,0.505C70.281,46.672,70.928,48.084,72.143,46.51z"/>
	<path style="fill-rule:evenodd;clip-rule:evenodd;fill:#010101;" d="M93.688,47.43c-1.364,0.974-3.139-0.093-4.703,1.312
		c-1.229,1.106-2.549-0.137-2.23-2.024C89.025,47.333,91.536,45.687,93.688,47.43z"/>
	<path style="fill-rule:evenodd;clip-rule:evenodd;fill:#FFFFFF;" d="M66.908,52.72c1.348,0.207,1.393-2.188,3.002-1.455
		c0.141,2.292-2.176,1.122-2.996,2.06C66.795,53.125,66.795,52.923,66.908,52.72z"/>
	<path style="fill-rule:evenodd;clip-rule:evenodd;fill:#FFFFFF;" d="M73.16,61.437c0.891,0.396,0.885,1.314,0.969,2.073
		c0.088,0.782-0.377,1.548-1.266,1.32c-0.84-0.215-1.326-0.985-1.197-1.937C71.777,62.078,72.297,61.623,73.16,61.437z"/>
</g>
<path d="M82.156,97.46h-1.129v2.867h-0.723V97.46h-1.121v-0.61h2.973V97.46z"/>
<path d="M85.219,98.832v1.495h-0.696v-1.495c0-0.414-0.206-0.617-0.593-0.617c-0.246,0-0.445,0.075-0.602,0.203v1.909h-0.697v-3.72
	h0.697v1.18c0.201-0.123,0.451-0.189,0.728-0.189C84.852,97.597,85.219,97.963,85.219,98.832z"/>
<path d="M86.381,99.183c0.074,0.351,0.361,0.597,0.777,0.597c0.285,0,0.551-0.128,0.7-0.331l0.446,0.365
	c-0.248,0.336-0.695,0.553-1.227,0.553c-0.823,0-1.394-0.616-1.394-1.382c0-0.771,0.571-1.388,1.394-1.388
	c0.837,0,1.323,0.598,1.323,1.433c0,0.055-0.005,0.108-0.005,0.153H86.381z M86.385,98.744h1.35
	c-0.025-0.307-0.189-0.598-0.656-0.598C86.711,98.146,86.451,98.413,86.385,98.744z"/>
<path d="M94.19,96.849v3.478h-0.722v-1.923l-1.093,1.51l-1.099-1.51v1.923h-0.716v-3.478h0.351l1.464,1.993l1.464-1.993H94.19z"/>
<path d="M97.709,98.985c0,0.766-0.666,1.382-1.489,1.382c-0.821,0-1.489-0.616-1.489-1.382c0-0.771,0.668-1.388,1.489-1.388
	C97.043,97.597,97.709,98.214,97.709,98.985z M97.022,98.985c0-0.425-0.356-0.771-0.803-0.771c-0.44,0-0.802,0.346-0.802,0.771
	c0,0.419,0.361,0.766,0.802,0.766C96.666,99.751,97.022,99.404,97.022,98.985z"/>
<path d="M98.306,99.602c0.335,0.144,0.589,0.217,0.933,0.217c0.32,0,0.445-0.118,0.445-0.256c0-0.153-0.156-0.222-0.578-0.312
	c-0.586-0.129-1.011-0.316-1.011-0.834c0-0.483,0.405-0.82,1.038-0.82c0.426,0,0.768,0.1,1.063,0.219l-0.232,0.504
	c-0.265-0.099-0.576-0.174-0.846-0.174c-0.266,0-0.401,0.094-0.401,0.237c0,0.147,0.166,0.217,0.601,0.306
	c0.633,0.129,0.999,0.345,0.999,0.834c0,0.508-0.397,0.844-1.093,0.844c-0.471,0-0.778-0.064-1.18-0.257L98.306,99.602z"/>
<path d="M103.553,97.647v3.543h-0.697v-1.025c-0.23,0.129-0.5,0.202-0.796,0.202c-0.758,0-1.374-0.558-1.374-1.382
	c0-0.839,0.616-1.388,1.374-1.388c0.285,0,0.571,0.08,0.796,0.208v-0.158H103.553z M102.186,99.751c0.265,0,0.499-0.085,0.67-0.228
	v-1.076c-0.175-0.143-0.405-0.232-0.67-0.232c-0.467,0-0.814,0.332-0.814,0.771C101.371,99.438,101.719,99.751,102.186,99.751z"/>
<path d="M106.756,97.647v2.68h-0.697v-0.177c-0.205,0.139-0.461,0.217-0.742,0.217c-0.797,0-1.162-0.365-1.162-1.234v-1.485h0.695
	v1.485c0,0.416,0.206,0.618,0.592,0.618c0.252,0,0.457-0.081,0.617-0.214v-1.89H106.756z"/>
<path d="M107.346,96.957c0-0.222,0.182-0.404,0.402-0.404c0.221,0,0.395,0.183,0.395,0.404c0,0.223-0.174,0.399-0.395,0.399
	C107.527,97.356,107.346,97.179,107.346,96.957z M107.401,97.647h0.698v2.68h-0.698V97.647z"/>
<path d="M109.627,98.214v0.949c0,0.479,0.08,0.616,0.432,0.616c0.119,0,0.225-0.016,0.32-0.024v0.513
	c-0.029,0.011-0.24,0.099-0.632,0.099c-0.456,0-0.823-0.281-0.823-0.844v-1.309h-0.385v-0.567h0.385v-1.04h0.703v1.04h0.762v0.567
	H109.627z"/>
<path d="M113.603,98.985c0,0.766-0.667,1.382-1.489,1.382c-0.823,0-1.489-0.616-1.489-1.382c0-0.771,0.666-1.388,1.489-1.388
	C112.935,97.597,113.603,98.214,113.603,98.985z M112.916,98.985c0-0.425-0.357-0.771-0.803-0.771c-0.441,0-0.803,0.346-0.803,0.771
	c0,0.419,0.361,0.766,0.803,0.766C112.559,99.751,112.916,99.404,112.916,98.985z"/>
<path d="M119.396,96.849v3.478h-0.723v-1.923l-1.092,1.51l-1.098-1.51v1.923h-0.718v-3.478h0.353l1.463,1.993l1.464-1.993H119.396z"
	/>
<path d="M122.809,97.647v2.68h-0.695v-0.198c-0.226,0.15-0.496,0.238-0.799,0.238c-0.852,0-1.352-0.675-1.352-1.387
	c0-0.715,0.5-1.387,1.352-1.387c0.287,0,0.568,0.09,0.799,0.223v-0.169H122.809z M122.113,98.447
	c-0.17-0.143-0.412-0.232-0.673-0.232c-0.495,0-0.807,0.366-0.807,0.766c0,0.404,0.316,0.771,0.807,0.771
	c0.267,0,0.503-0.085,0.673-0.228V98.447z"/>
<path d="M126.022,98.832v1.495h-0.696v-1.495c0-0.414-0.207-0.617-0.594-0.617c-0.243,0-0.445,0.079-0.601,0.213v1.899h-0.696v-2.68
	h0.696v0.169c0.2-0.139,0.452-0.219,0.728-0.219C125.657,97.597,126.022,97.963,126.022,98.832z"/>
</svg>
